# xmcd
#
# Track frame offsets:
# 150
# 16749
# 36685
# 54423
#
# Disc length: 1117 seconds
#
#
# Revision: 0
# Processed by: cddbd v1.4PL0 Copyright (c) Steve Scherf et al.
# Submitted via: FreeRIP 2.30 
#
DISCID=2c045b04
DTITLE=Ashanti - Rock Wit U (Awww Baby) (UK Single #!)
DYEAR=2003
DGENRE=R&B
TTITLE0=Rock Wit U (Awww Baby) (Album Version - Clean) 
TTITLE1=Rock Wit U (Awww Baby) (Taz and Vangard Remix)
TTITLE2=Rock Wit U (Awww Baby) (J.D. Remix)
TTITLE3=Rock Wit U (Awww Baby) (Jay Hannan Lazy Dog Mix)
EXTD=made by KAYVON
EXTT0=
EXTT1=
EXTT2=
EXTT3=
PLAYORDER=
